# xmcd CD database file
#
# Track frame offsets:
#	150
#	7937
#	24942
#	52737
#	55295
#	102072
#	118325
#	136407
#	144667
#	152987
#	182537
#	211187
#	269102
#	284100
#
# Disc length: 3974 seconds
#
# Revision: 0
# Processed by: cddbd v1.5.2PL0 Copyright (c) Steve Scherf et al.
# Submitted via: CDex 1.70beta2
#
DISCID=cb0f840e
DTITLE=Compagnie Christian Vieussens - Noche en vela
DYEAR=1999
DGENRE=Jazz
TTITLE0=Galernes
TTITLE1=Picalina
TTITLE2=Arc 96
TTITLE3=A Garetche
TTITLE4=Vendredi dit
TTITLE5=Sarrampion
TTITLE6=Rue de Port
TTITLE7=Le Facteur de Rennes
TTITLE8=Peyrot
TTITLE9=Pas de bruit
TTITLE10=Laurens
TTITLE11=Aure
TTITLE12=El Trotomondo
TTITLE13=Quator pour Auròst
EXTD=YEAR: 1999
EXTT0=
EXTT1=
EXTT2=
EXTT3=
EXTT4=
EXTT5=
EXTT6=
EXTT7=
EXTT8=
EXTT9=
EXTT10=
EXTT11=
EXTT12=
EXTT13=
PLAYORDER=
